<svg width="25" height="25" viewBox="0 0 25 25" fill="none" xmlns="http://www.w3.org/2000/svg">
<path d="M2.69633 2.69794L2.69794 2.69633C3.48472 1.90775 4.50773 1.46885 6.07856 1.23814C7.68331 1.00245 9.72892 1 12.4977 1C15.2665 1 17.3123 1.00243 18.9178 1.23763C20.4894 1.46784 21.5142 1.90589 22.3033 2.69308C23.0923 3.4823 23.5312 4.50689 23.7619 6.07795C23.9976 7.68329 24 9.72895 24 12.4977C24 15.2665 23.9976 17.3122 23.7619 18.9175C23.5311 20.4889 23.0922 21.5136 22.3029 22.3029C21.5137 23.092 20.4881 23.5311 18.9159 23.7618C17.3099 23.9976 15.2642 24 12.4977 24C9.73123 24 7.68556 23.9976 6.08022 23.7619C4.50855 23.5311 3.48457 23.0921 2.69794 22.3037L2.69713 22.3029C1.908 21.5137 1.46891 20.4881 1.23815 18.9159C1.00244 17.3099 1 15.2642 1 12.4977C1 9.73123 1.00244 7.68556 1.23815 6.08022C1.4689 4.50855 1.90791 3.48457 2.69633 2.69794Z" stroke="#545454" stroke-width="2"/>
<path d="M11.0454 19.4444V13.543H9.02783V11.1979H11.0454V9.35018C11.0454 7.34266 12.2975 6.25 14.1257 6.25C15.0016 6.25 15.7539 6.31443 15.9723 6.34277V8.44048H14.7044C13.7101 8.44048 13.518 8.90435 13.518 9.58211V11.1979H15.7618L15.4541 13.543H13.518V19.4444" fill="#545454"/>
</svg>
