<svg width="25" height="25" viewBox="0 0 25 25" fill="none" xmlns="http://www.w3.org/2000/svg">
<path d="M2.69633 2.69794L2.69794 2.69633C3.48472 1.90775 4.50773 1.46885 6.07856 1.23814C7.68331 1.00245 9.72892 1 12.4977 1C15.2665 1 17.3123 1.00243 18.9178 1.23763C20.4894 1.46784 21.5142 1.90589 22.3033 2.69308C23.0923 3.4823 23.5312 4.50689 23.7619 6.07795C23.9976 7.68329 24 9.72895 24 12.4977C24 15.2665 23.9976 17.3122 23.7619 18.9175C23.5311 20.4889 23.0922 21.5136 22.3029 22.3029C21.5137 23.092 20.4881 23.5311 18.9159 23.7618C17.3099 23.9976 15.2642 24 12.4977 24C9.73123 24 7.68556 23.9976 6.08022 23.7619C4.50855 23.5311 3.48457 23.0921 2.69794 22.3037L2.69713 22.3029C1.908 21.5137 1.46891 20.4881 1.23815 18.9159C1.00244 17.3099 1 15.2642 1 12.4977C1 9.73123 1.00244 7.68556 1.23815 6.08022C1.4689 4.50855 1.90791 3.48457 2.69633 2.69794Z" stroke="#545454" stroke-width="2"/>
<path d="M17.4651 9.54046C17.4731 9.65439 17.4731 9.76834 17.4731 9.88227C17.4731 13.3572 14.8953 17.3611 10.184 17.3611C8.73255 17.3611 7.38421 16.9298 6.25 16.1811C6.45623 16.2055 6.65449 16.2136 6.86865 16.2136C8.06629 16.2136 9.16879 15.7986 10.0492 15.0906C8.92291 15.0662 7.97906 14.3094 7.65386 13.2677C7.81251 13.2921 7.97113 13.3084 8.1377 13.3084C8.36771 13.3084 8.59774 13.2758 8.81188 13.2189C7.63802 12.9747 6.75759 11.9168 6.75759 10.6391V10.6066C7.09864 10.8019 7.49524 10.9239 7.91558 10.9402C7.22554 10.4682 6.77346 9.66253 6.77346 8.75107C6.77346 8.26279 6.90034 7.8152 7.12244 7.42457C8.38355 9.01962 10.2792 10.0613 12.4048 10.1752C12.3652 9.97991 12.3414 9.77648 12.3414 9.57303C12.3414 8.12444 13.4835 6.94444 14.9032 6.94444C15.6409 6.94444 16.3071 7.26182 16.7751 7.77452C17.354 7.66059 17.9093 7.44086 18.401 7.13976C18.2106 7.75012 17.8061 8.26282 17.2748 8.58832C17.7903 8.53138 18.29 8.38486 18.75 8.18143C18.4011 8.70224 17.9648 9.16609 17.4651 9.54046Z" fill="#545454"/>
</svg>
