<svg width="25" height="25" viewBox="0 0 25 25" fill="none" xmlns="http://www.w3.org/2000/svg">
<path d="M2.69633 2.69794L2.69794 2.69633C3.48472 1.90775 4.50773 1.46885 6.07856 1.23814C7.68331 1.00245 9.72892 1 12.4977 1C15.2665 1 17.3123 1.00243 18.9178 1.23763C20.4894 1.46784 21.5142 1.90589 22.3033 2.69308C23.0923 3.4823 23.5312 4.50689 23.7619 6.07795C23.9976 7.68329 24 9.72895 24 12.4977C24 15.2665 23.9976 17.3122 23.7619 18.9175C23.5311 20.4889 23.0922 21.5136 22.3029 22.3029C21.5137 23.092 20.4881 23.5311 18.9159 23.7618C17.3099 23.9976 15.2642 24 12.4977 24C9.73123 24 7.68556 23.9976 6.08022 23.7619C4.50855 23.5311 3.48457 23.0921 2.69794 22.3037L2.69713 22.3029C1.908 21.5137 1.46891 20.4881 1.23815 18.9159C1.00244 17.3099 1 15.2642 1 12.4977C1 9.73123 1.00244 7.68556 1.23815 6.08022C1.4689 4.50855 1.90791 3.48457 2.69633 2.69794Z" stroke="#545454" stroke-width="2"/>
<path d="M18.7106 7.32474L16.6147 17.3429C16.4566 18.05 16.0442 18.226 15.4582 17.8929L12.2648 15.5077L10.7238 17.0098C10.5533 17.1827 10.4107 17.3272 10.082 17.3272L10.3115 14.0308L16.2303 8.61001C16.4876 8.37747 16.1745 8.24863 15.8303 8.48117L8.51318 13.1509L5.3631 12.1516C4.67789 11.9347 4.66549 11.4571 5.50572 11.124L17.827 6.31287C18.3975 6.09604 18.8967 6.44171 18.7106 7.32474Z" fill="#545454"/>
</svg>
